<svg xmlns="http://www.w3.org/2000/svg" xmlns:xlink="http://www.w3.org/1999/xlink" width="500" zoomAndPan="magnify" viewBox="0 0 375 374.999991" height="500" preserveAspectRatio="xMidYMid meet" version="1.0"><defs><clipPath id="d7435aa110"><path d="M 38 42.375 L 336 42.375 L 336 332.625 L 38 332.625 Z M 38 42.375 " clip-rule="nonzero"/></clipPath></defs><g clip-path="url(#d7435aa110)"><path fill="#000000" d="M 279.597656 42.636719 C 274.167969 43.082031 268.585938 46.03125 262.085938 51.898438 C 257.933594 55.644531 240.160156 73.316406 238.121094 75.726562 C 237.328125 76.660156 237.320312 76.667969 236.597656 76.578125 C 228.886719 75.632812 222.777344 82.886719 226.324219 88.777344 L 226.855469 89.65625 L 225.953125 89.402344 C 221.273438 88.082031 217.277344 90.015625 216.671875 93.894531 C 216.609375 94.292969 216.457031 94.976562 216.332031 95.414062 C 216.035156 96.449219 216.042969 98.988281 216.347656 100.425781 C 216.476562 101.046875 216.585938 101.597656 216.585938 101.652344 C 216.585938 101.707031 216.167969 102.007812 215.65625 102.328125 C 214.476562 103.0625 213.53125 103.976562 209.542969 108.253906 C 205.519531 112.5625 197.71875 120.191406 184.738281 132.507812 C 178.132812 138.777344 171.613281 145.03125 166.597656 149.917969 C 165.136719 151.347656 161.582031 154.796875 158.699219 157.589844 C 149.140625 166.859375 148.160156 167.8125 145.820312 170.085938 C 144.542969 171.328125 143.417969 172.414062 143.316406 172.507812 C 143.078125 172.722656 130.574219 184.730469 128.300781 186.929688 C 127.324219 187.875 123.40625 191.613281 119.59375 195.242188 C 115.78125 198.867188 111.898438 202.566406 110.972656 203.457031 C 108.96875 205.375 107.21875 207.046875 102.019531 212.011719 C 82.699219 230.457031 64.8125 248.5625 58.519531 256.046875 C 57.433594 257.34375 57.175781 257.558594 56.339844 257.871094 C 53.058594 259.097656 50.738281 263.128906 48.625 271.257812 C 48.3125 272.460938 47.839844 274.121094 47.582031 274.949219 C 45.421875 281.78125 43.53125 290.695312 42.199219 300.292969 C 41.96875 301.933594 41.535156 304.367188 41.226562 305.695312 C 37.949219 319.90625 37.558594 328.339844 40.058594 330.894531 C 41.730469 332.597656 43.753906 332.65625 51.949219 331.238281 C 60.523438 329.75 65.757812 328.488281 81.453125 324.136719 C 89.085938 322.019531 93.402344 320.871094 100.445312 319.082031 C 106.691406 317.5 108.8125 316.488281 110.367188 314.371094 C 112.105469 312 112.511719 309.886719 111.835938 306.734375 C 111.757812 306.371094 111.894531 306.199219 112.929688 305.371094 C 121.710938 298.316406 134.679688 286.824219 175.222656 250.152344 C 199.078125 228.570312 236.757812 194.148438 248.914062 182.824219 C 250.070312 181.75 253.550781 178.519531 256.65625 175.644531 C 264.230469 168.625 271.765625 161.605469 272.894531 160.519531 L 273.8125 159.632812 L 274.828125 160.097656 C 278.726562 161.878906 282.683594 158.800781 284.199219 152.804688 L 284.570312 151.339844 L 285.042969 151.585938 C 287.289062 152.761719 290.742188 151.113281 292.1875 148.175781 C 292.691406 147.152344 293.816406 143.125 294.066406 141.453125 C 294.164062 140.785156 294.265625 140.648438 295.167969 139.980469 C 296.488281 139 297.5625 138.035156 301.96875 133.875 C 306.242188 129.835938 308.265625 128.058594 313.417969 123.816406 C 325.789062 113.621094 330.390625 108.609375 332.597656 102.894531 C 332.914062 102.070312 333.296875 101.175781 333.441406 100.910156 C 337.335938 93.765625 335.152344 88.394531 321.339844 71.15625 C 308.296875 54.878906 302.027344 49.316406 292.535156 45.609375 C 291.691406 45.28125 290.347656 44.730469 289.550781 44.386719 C 286.179688 42.941406 282.902344 42.363281 279.597656 42.636719 M 285.753906 50.132812 C 288.242188 50.582031 292.410156 52.121094 294.800781 53.46875 C 296.132812 54.21875 304.949219 61.8125 308.4375 65.214844 C 309.160156 65.917969 310.617188 67.597656 311.675781 68.945312 C 318.664062 77.847656 322.558594 82.820312 323.222656 83.6875 C 323.640625 84.238281 324.492188 85.722656 325.109375 86.988281 C 329.367188 95.710938 328.582031 100.355469 321.652344 107.414062 C 318.570312 110.554688 310.222656 118.554688 306.644531 121.796875 C 303.234375 124.886719 297.765625 130.371094 295.839844 132.632812 C 295.042969 133.570312 294.371094 134.324219 294.351562 134.300781 C 294.332031 134.28125 294.132812 133.21875 293.917969 131.9375 C 290.476562 111.804688 267.753906 86.800781 245.34375 78.5 L 243.707031 77.894531 L 244.296875 77.394531 C 244.621094 77.121094 247.242188 74.570312 250.125 71.726562 C 269.066406 53.039062 276.605469 48.472656 285.753906 50.132812 M 238.675781 82.0625 C 247.582031 83.667969 259.851562 91.242188 270.128906 101.472656 C 285.097656 116.375 292.25 132.558594 289.132812 144.457031 C 288.285156 147.695312 287.300781 148.433594 286.074219 146.75 C 285.03125 145.316406 284.777344 144.710938 284.375 142.722656 C 281.386719 127.9375 263.253906 108.507812 240.53125 95.742188 C 234.984375 92.628906 230.289062 89.210938 229.933594 88.035156 C 228.480469 83.21875 231.953125 80.847656 238.675781 82.0625 M 226.042969 93.585938 C 231.402344 94.746094 234.003906 96.167969 243.207031 102.953125 C 245.566406 104.691406 248.980469 107.1875 250.789062 108.496094 C 260.703125 115.667969 266.535156 120.972656 272.183594 127.949219 C 275.671875 132.253906 279.125 138.964844 279.6875 142.527344 C 279.996094 144.476562 280.5625 146.316406 281.292969 147.761719 C 282.035156 149.222656 281.738281 151.078125 280.296875 154.023438 C 277.949219 158.828125 276.03125 157.753906 268.664062 147.507812 C 258.191406 132.953125 250.007812 124.785156 232.871094 111.789062 C 222.019531 103.5625 221.09375 102.417969 221.042969 97.140625 C 221.003906 93.105469 221.664062 92.636719 226.042969 93.585938 M 218.984375 106.300781 C 220.484375 108.359375 222.933594 110.507812 229.566406 115.574219 C 231.519531 117.066406 234.175781 119.125 235.476562 120.144531 L 237.835938 122.003906 L 236.925781 122.683594 C 235.894531 123.457031 223.285156 135.210938 206.742188 150.828125 C 200.582031 156.640625 194.128906 162.734375 192.398438 164.367188 C 184.050781 172.242188 154.324219 200.449219 138.703125 215.3125 C 99.28125 252.832031 84.449219 267.265625 77.449219 274.9375 C 75.476562 277.097656 75.332031 277.101562 75.332031 275.015625 C 75.332031 266.65625 70.242188 258.753906 64.042969 257.480469 C 62.953125 257.257812 62.972656 257.21875 64.96875 255.375 C 66.019531 254.40625 68.507812 252.089844 70.496094 250.226562 C 78.609375 242.621094 85.113281 236.523438 91.371094 230.636719 C 95.003906 227.222656 100.445312 222.105469 103.464844 219.269531 C 109.59375 213.507812 120.265625 203.421875 122.980469 200.828125 C 137.085938 187.335938 139.09375 185.371094 165.230469 159.4375 C 177.027344 147.734375 188.273438 136.601562 190.222656 134.695312 C 206.320312 118.984375 213.636719 111.324219 217.535156 106.109375 C 218.238281 105.164062 218.148438 105.152344 218.984375 106.300781 M 242.546875 125.902344 C 243.921875 127.054688 246.96875 129.90625 249.320312 132.238281 L 253.59375 136.476562 L 250.289062 139.71875 C 245.359375 144.554688 240.734375 148.851562 230.371094 158.226562 C 211.953125 174.886719 201.777344 184.316406 187.621094 197.839844 C 144.289062 239.230469 106.039062 277.210938 96.335938 288.484375 L 95.367188 289.609375 L 95.269531 288.542969 C 94.683594 282.320312 88.929688 277.363281 81.292969 276.496094 C 80.09375 276.359375 80.019531 276.496094 82.34375 274.492188 C 92.207031 265.976562 127.242188 232.722656 189.011719 173.234375 C 229.683594 134.0625 239.265625 124.683594 239.429688 123.878906 C 239.542969 123.308594 239.191406 123.082031 242.546875 125.902344 M 256.957031 140.292969 C 258.460938 142.019531 260.910156 145.023438 262.535156 147.128906 C 265.265625 150.664062 268.574219 154.730469 269.691406 155.914062 L 270.925781 157.226562 L 265.644531 161.898438 C 235.304688 188.757812 179.363281 239.332031 149.746094 266.679688 C 148.773438 267.578125 145.652344 270.449219 142.8125 273.050781 C 131 283.898438 121.078125 293.242188 115.230469 299.039062 L 110.542969 303.683594 L 109.746094 302.515625 C 106.839844 298.257812 101.113281 294.6875 96.671875 294.375 L 95.355469 294.28125 L 96.269531 293.671875 C 98.589844 292.117188 100.824219 289.957031 124.511719 266.355469 C 147.445312 243.503906 156.105469 234.964844 175.226562 216.359375 C 198.4375 193.769531 207.054688 185.53125 224.484375 169.273438 C 237.546875 157.089844 244.644531 150.148438 250.210938 144.125 C 253.019531 141.085938 255.320312 138.722656 255.46875 138.722656 C 255.535156 138.722656 256.203125 139.429688 256.957031 140.292969 M 64.125 262.398438 C 68.574219 264.578125 70.714844 269.203125 70.632812 276.460938 C 70.578125 280.847656 71.636719 282.113281 74.929688 281.589844 C 79.617188 280.84375 83.335938 281.550781 86.871094 283.851562 C 90.128906 285.976562 90.945312 289.664062 89.367188 295.132812 C 88.234375 299.058594 89.726562 300.933594 93.339844 300.121094 C 95.316406 299.671875 100.515625 301.566406 102.433594 303.433594 C 104.125 305.074219 104.90625 307.949219 104.183594 309.878906 C 103.789062 310.929688 104.296875 310.738281 98.574219 311.984375 C 93.863281 313.007812 86.890625 314.742188 79.765625 316.664062 C 69.605469 319.402344 67.480469 319.964844 67.351562 319.964844 C 67.285156 319.964844 67.269531 319.621094 67.328125 319.199219 C 68.285156 311.855469 59.382812 301.09375 51.988281 300.660156 L 50.492188 300.574219 L 50.582031 299.828125 C 50.898438 297.140625 50.980469 295.90625 50.980469 293.765625 C 50.988281 289.148438 52.105469 282.125 53.871094 275.578125 C 54.667969 272.632812 55.574219 269.21875 55.886719 267.988281 C 56.664062 264.917969 57.652344 263.695312 60.574219 262.183594 C 61.941406 261.476562 62.285156 261.496094 64.125 262.398438 " fill-opacity="1" fill-rule="evenodd"/></g></svg>