<svg xmlns="http://www.w3.org/2000/svg" xmlns:xlink="http://www.w3.org/1999/xlink" width="500" zoomAndPan="magnify" viewBox="0 0 375 374.999991" height="500" preserveAspectRatio="xMidYMid meet" version="1.0"><path fill="#1e1e1d" d="M 185.644531 307.414062 C 121.851562 307.414062 70.140625 255.703125 70.140625 191.90625 C 70.140625 128.113281 121.851562 76.402344 185.644531 76.402344 C 249.4375 76.402344 301.148438 128.113281 301.148438 191.90625 C 301.148438 255.703125 249.4375 307.414062 185.644531 307.414062 Z M 185.644531 307.414062 " fill-opacity="1" fill-rule="nonzero"/><path stroke-linecap="square" transform="matrix(0.456, 0, 0, 0.456, -257.951873, -268.515246)" fill="none" stroke-linejoin="bevel" d="M 870.996832 1152.197368 L 870.996832 869.79946 L 970.597647 991.201606 L 979.104021 976.895821 " stroke="#f4f4f4" stroke-width="3.487" stroke-opacity="1" stroke-miterlimit="10"/><path stroke-linecap="square" transform="matrix(0.456, 0, 0, 0.456, -257.951873, -268.515246)" fill="none" stroke-linejoin="bevel" d="M 896.396025 1153.396655 L 1074.60156 869.79946 L 1074.60156 1153.396655 L 896.396025 945.397395 " stroke="#f4f4f4" stroke-width="3.487" stroke-opacity="1" stroke-miterlimit="10"/><path stroke-linecap="square" transform="matrix(0.456, 0, 0, 0.456, -257.951873, -268.515246)" fill="none" stroke-linejoin="bevel" d="M 1171.204157 1009.69633 C 1171.204157 1012.942972 1171.118493 1016.189615 1170.964299 1019.436257 C 1170.801539 1022.674333 1170.561681 1025.912409 1170.244727 1029.150485 C 1169.927772 1032.379994 1169.525155 1035.600937 1169.054006 1038.813314 C 1168.574291 1042.025691 1168.017479 1045.220935 1167.38357 1048.407613 C 1166.758227 1051.594291 1166.038655 1054.75527 1165.250552 1057.907682 C 1164.462449 1061.060095 1163.597248 1064.186808 1162.654951 1067.296389 C 1161.712654 1070.397403 1160.69326 1073.481285 1159.605335 1076.539468 C 1158.508844 1079.597651 1157.343822 1082.621568 1156.101702 1085.628353 C 1154.851017 1088.626571 1153.540367 1091.590524 1152.152621 1094.528778 C 1150.764874 1097.458466 1149.30003 1100.362455 1147.775222 1103.223612 C 1146.241847 1106.084769 1144.639942 1108.91166 1142.969506 1111.69572 C 1141.307636 1114.47978 1139.56867 1117.221008 1137.761172 1119.927971 C 1135.962241 1122.626368 1134.094779 1125.281933 1132.158787 1127.8861 C 1130.222795 1130.498833 1128.226838 1133.051602 1126.16235 1135.561539 C 1124.106429 1138.071476 1121.981977 1140.530015 1119.806127 1142.937156 C 1117.621711 1145.344297 1115.385897 1147.691474 1113.090118 1149.987252 C 1110.794339 1152.283031 1108.447163 1154.527412 1106.040022 1156.703262 C 1103.632881 1158.887678 1101.174341 1161.003563 1098.664404 1163.068051 C 1096.154467 1165.123972 1093.593132 1167.119929 1090.988965 1169.055921 C 1088.376232 1170.991914 1085.720667 1172.859376 1083.022271 1174.666873 C 1080.323874 1176.465804 1077.582646 1178.204771 1074.798586 1179.875207 C 1072.014526 1181.545643 1069.187634 1183.138981 1066.326477 1184.672356 C 1063.46532 1186.205731 1060.561332 1187.662008 1057.623078 1189.049755 C 1054.69339 1190.437502 1051.720871 1191.756718 1048.722652 1192.998837 C 1045.724434 1194.240956 1042.69195 1195.405978 1039.642334 1196.502469 C 1036.584151 1197.59896 1033.500269 1198.618355 1030.390688 1199.560652 C 1027.281107 1200.502949 1024.154394 1201.368149 1021.010548 1202.156252 C 1017.858135 1202.944356 1014.68859 1203.655362 1011.501912 1204.289271 C 1008.323801 1204.92318 1005.11999 1205.479992 1001.907613 1205.95114 C 998.695237 1206.430855 995.474293 1206.824907 992.244784 1207.141861 C 989.015274 1207.458816 985.777198 1207.698673 982.539123 1207.861434 C 979.29248 1208.024194 976.045838 1208.101291 972.799196 1208.101291 C 969.552554 1208.101291 966.305912 1208.024194 963.067836 1207.861434 C 959.821193 1207.698673 956.583118 1207.458816 953.353608 1207.141861 C 950.124098 1206.824907 946.903155 1206.430855 943.690778 1205.95114 C 940.478402 1205.479992 937.274591 1204.92318 934.09648 1204.289271 C 930.909802 1203.655362 927.740257 1202.944356 924.59641 1202.156252 C 921.443998 1201.368149 918.317284 1200.502949 915.207704 1199.560652 C 912.098123 1198.618355 909.014241 1197.59896 905.964625 1196.502469 C 902.906442 1195.405978 899.873958 1194.240956 896.87574 1192.998837 C 893.877521 1191.756718 890.905002 1190.437502 887.975314 1189.049755 C 885.03706 1187.662008 882.141638 1186.205731 879.271915 1184.672356 C 876.410758 1183.138981 873.583866 1181.545643 870.799806 1179.875207 C 868.015746 1178.204771 865.274518 1176.465804 862.576121 1174.666873 C 859.877725 1172.859376 857.22216 1170.991914 854.609427 1169.055921 C 852.00526 1167.119929 849.443925 1165.123972 846.933988 1163.068051 C 844.42405 1161.003563 841.965511 1158.887678 839.566937 1156.703262 C 837.159796 1154.527412 834.804053 1152.283031 832.508274 1149.987252 C 830.212495 1147.691474 827.976681 1145.344297 825.792265 1142.937156 C 823.616415 1140.530015 821.491963 1138.071476 819.436042 1135.561539 C 817.371554 1133.051602 815.375597 1130.498833 813.439605 1127.8861 C 811.512179 1125.281933 809.636151 1122.626368 807.83722 1119.927971 C 806.029722 1117.221008 804.299322 1114.47978 802.628886 1111.69572 C 800.95845 1108.91166 799.356545 1106.084769 797.82317 1103.223612 C 796.298362 1100.362455 794.833518 1097.458466 793.445771 1094.528778 C 792.058025 1091.590524 790.747375 1088.626571 789.505256 1085.628353 C 788.263137 1082.621568 787.089548 1079.597651 786.001623 1076.539468 C 784.905132 1073.481285 783.885738 1070.397403 782.943441 1067.296389 C 782.001143 1064.186808 781.135943 1061.060095 780.34784 1057.907682 C 779.559737 1054.75527 778.848731 1051.594291 778.214822 1048.407613 C 777.580913 1045.220935 777.024101 1042.025691 776.544386 1038.813314 C 776.073237 1035.600937 775.670619 1032.379994 775.353665 1029.150485 C 775.03671 1025.912409 774.796853 1022.674333 774.642659 1019.436257 C 774.479898 1016.189615 774.402801 1012.942972 774.402801 1009.69633 C 774.402801 1006.449688 774.479898 1003.211612 774.642659 999.96497 C 774.796853 996.718328 775.03671 993.488818 775.353665 990.250742 C 775.670619 987.021233 776.073237 983.80029 776.544386 980.587913 C 777.024101 977.375536 777.580913 974.180292 778.214822 970.993614 C 778.848731 967.806936 779.559737 964.645957 780.34784 961.493545 C 781.135943 958.341132 782.001143 955.214419 782.943441 952.104838 C 783.885738 949.003824 784.905132 945.919942 786.001623 942.861759 C 787.089548 939.803576 788.263137 936.779659 789.505256 933.772874 C 790.747375 930.774656 792.058025 927.810703 793.445771 924.872449 C 794.833518 921.934195 796.298362 919.038772 797.82317 916.177615 C 799.356545 913.307892 800.95845 910.489567 802.628886 907.705507 C 804.299322 904.91288 806.029722 902.171652 807.83722 899.473256 C 809.636151 896.774859 811.512179 894.119294 813.439605 891.515127 C 815.375597 888.902394 817.371554 886.349625 819.436042 883.839688 C 821.491963 881.329751 823.616415 878.871212 825.792265 876.464071 C 827.976681 874.05693 830.212495 871.709753 832.508274 869.413975 C 834.804053 867.118196 837.159796 864.873815 839.55837 862.697965 C 841.965511 860.513549 844.42405 858.397664 846.933988 856.333176 C 849.443925 854.277255 852.00526 852.281298 854.609427 850.345306 C 857.22216 848.409313 859.877725 846.541851 862.576121 844.734354 C 865.274518 842.935423 868.015746 841.196456 870.799806 839.52602 C 873.583866 837.855584 876.410758 836.253679 879.271915 834.728871 C 882.141638 833.195496 885.03706 831.739219 887.975314 830.351472 C 890.905002 828.963725 893.877521 827.644509 896.87574 826.40239 C 899.873958 825.160271 902.906442 823.995249 905.964625 822.898758 C 909.014241 821.802266 912.098123 820.782872 915.207704 819.840575 C 918.317284 818.898278 921.443998 818.033078 924.59641 817.244974 C 927.740257 816.456871 930.909802 815.745865 934.09648 815.111956 C 937.274591 814.478047 940.478402 813.921235 943.690778 813.450087 C 946.903155 812.970372 950.124098 812.57632 953.353608 812.259366 C 956.583118 811.933845 959.821193 811.702554 963.067836 811.539793 C 966.305912 811.377033 969.552554 811.299936 972.799196 811.299936 C 976.045838 811.299936 979.29248 811.377033 982.539123 811.539793 C 985.777198 811.702554 989.015274 811.933845 992.244784 812.259366 C 995.474293 812.57632 998.695237 812.970372 1001.907613 813.450087 C 1005.11999 813.921235 1008.323801 814.478047 1011.501912 815.111956 C 1014.68859 815.745865 1017.858135 816.456871 1021.010548 817.244974 C 1024.154394 818.033078 1027.281107 818.898278 1030.390688 819.840575 C 1033.500269 820.782872 1036.584151 821.802266 1039.642334 822.898758 C 1042.69195 823.995249 1045.724434 825.160271 1048.722652 826.40239 C 1051.720871 827.644509 1054.69339 828.963725 1057.623078 830.351472 C 1060.561332 831.739219 1063.46532 833.195496 1066.326477 834.728871 C 1069.187634 836.253679 1072.014526 837.855584 1074.798586 839.52602 C 1077.582646 841.196456 1080.323874 842.935423 1083.022271 844.734354 C 1085.720667 846.541851 1088.376232 848.409313 1090.988965 850.345306 C 1093.593132 852.281298 1096.154467 854.277255 1098.664404 856.333176 C 1101.174341 858.397664 1103.632881 860.513549 1106.040022 862.697965 C 1108.438596 864.873815 1110.794339 867.118196 1113.090118 869.413975 C 1115.385897 871.709753 1117.621711 874.05693 1119.806127 876.464071 C 1121.981977 878.871212 1124.106429 881.329751 1126.16235 883.839688 C 1128.226838 886.349625 1130.222795 888.902394 1132.158787 891.515127 C 1134.086213 894.119294 1135.962241 896.774859 1137.761172 899.473256 C 1139.56867 902.171652 1141.307636 904.91288 1142.969506 907.705507 C 1144.639942 910.489567 1146.241847 913.307892 1147.775222 916.177615 C 1149.30003 919.038772 1150.764874 921.934195 1152.152621 924.872449 C 1153.540367 927.810703 1154.851017 930.774656 1156.093136 933.772874 C 1157.343822 936.779659 1158.508844 939.803576 1159.605335 942.861759 C 1160.69326 945.919942 1161.712654 949.003824 1162.654951 952.104838 C 1163.597248 955.214419 1164.462449 958.341132 1165.250552 961.493545 C 1166.038655 964.645957 1166.758227 967.806936 1167.38357 970.993614 C 1168.017479 974.180292 1168.574291 977.375536 1169.054006 980.587913 C 1169.525155 983.80029 1169.927772 987.021233 1170.244727 990.250742 C 1170.561681 993.488818 1170.801539 996.718328 1170.964299 999.96497 C 1171.118493 1003.211612 1171.204157 1006.449688 1171.204157 1009.69633 Z M 1171.204157 1009.69633 " stroke="#f4f4f4" stroke-width="3.487" stroke-opacity="1" stroke-miterlimit="10"/></svg>