<?xml version="1.0" encoding="utf-8"?>
<!-- Generator: Adobe Illustrator 27.1.1, SVG Export Plug-In . SVG Version: 6.00 Build 0)  -->
<svg version="1.1" id="Calque_1" xmlns="http://www.w3.org/2000/svg" xmlns:xlink="http://www.w3.org/1999/xlink" x="0px" y="0px"
	 viewBox="0 0 2000 2000" style="enable-background:new 0 0 2000 2000;" xml:space="preserve">
<style type="text/css">
	.st0{display:none;}
	.st1{display:inline;opacity:0.3;fill:none;stroke:#000000;stroke-width:2;stroke-miterlimit:10;enable-background:new    ;}
	.st2{fill:#1E1E1D;}
	.st3{fill:none;stroke:#F4F4F4;stroke-width:3.4875;stroke-linecap:square;stroke-linejoin:bevel;stroke-miterlimit:10;}
</style>
<g id="Calque_1_00000005266851225789816570000018385297718194488744_" class="st0">
	<path class="st1" d="M466.7,1633.6c-100-212.4-157.2-444.8-167.3-679.4c-1.7-38.8-2.1-77.7,0.2-116.4
		c13.9-238.6,128.2-461.1,271.5-652.3c63.4,31.5,121.7,65.2,184.3,98.3c88.3,46.8,177.5,99.2,236,180.2
		c26.2,36.3,45.4,77.1,64.3,117.7c72.1,154.3,145.5,313.5,154.8,483.6c112.4-143,183.5-319.9,205.8-500.4
		c22.4-180.5-5.4-366.9-79.5-533"/>
	<path class="st1" d="M558.2,1789.3c-111.6-257.7-134.6-544.8-133.3-825.6c1.1-231.8,21.7-475.6,150-668.6
		c167.9,72,310.2,202.8,386.5,368.8c30.8,67.1,51.6,138.5,68.6,210.3c31.9,134.4,51.2,271.7,61.3,409.5"/>
	<path class="st1" d="M445,907.4c41.4-39,95.8-60.9,149.8-78.6c151.8-50,312.1-74.2,471.9-71.2"/>
</g>
<path class="st2" d="M972.8,1263L972.8,1263c-139.9,0-253.3-113.4-253.3-253.3l0,0c0-139.9,113.4-253.3,253.3-253.3l0,0
	c139.9,0,253.3,113.4,253.3,253.3l0,0C1226.1,1149.6,1112.7,1263,972.8,1263z"/>
<g>
	<polyline class="st3" points="871,1152.2 871,869.8 970.6,991.2 979.1,976.9 	"/>
	<polyline class="st3" points="896.4,1153.4 1074.6,869.8 1074.6,1153.4 896.4,945.4 	"/>
</g>
<circle class="st3" cx="972.8" cy="1009.7" r="198.4"/>
</svg>
