<svg xmlns="http://www.w3.org/2000/svg" xmlns:xlink="http://www.w3.org/1999/xlink" width="500" zoomAndPan="magnify" viewBox="0 0 375 374.999991" height="500" preserveAspectRatio="xMidYMid meet" version="1.0"><defs><clipPath id="dfa836ab3c"><path d="M 55.875 37.5 L 318 37.5 L 318 337.5 L 55.875 337.5 Z M 55.875 37.5 " clip-rule="nonzero"/></clipPath></defs><rect x="-37.5" width="450" fill="#ffffff" y="-37.499999" height="449.999989" fill-opacity="1"/><rect x="-37.5" width="450" fill="#ffffff" y="-37.499999" height="449.999989" fill-opacity="1"/><rect x="-37.5" width="450" fill="#ffffff" y="-37.499999" height="449.999989" fill-opacity="1"/><path fill="#000000" d="M 181.941406 185.867188 L 206.082031 161.726562 C 208.28125 159.527344 208.28125 155.96875 206.082031 153.769531 C 203.882812 151.570312 200.328125 151.570312 198.128906 153.769531 L 173.984375 177.910156 L 149.84375 153.769531 C 147.644531 151.570312 144.089844 151.570312 141.890625 153.769531 C 139.691406 155.96875 139.691406 159.527344 141.890625 161.726562 L 166.03125 185.867188 L 141.890625 210.007812 C 139.691406 212.207031 139.691406 215.765625 141.890625 217.964844 C 142.988281 219.0625 144.425781 219.613281 145.859375 219.613281 C 147.292969 219.613281 148.730469 219.0625 149.828125 217.964844 L 173.972656 193.820312 L 198.113281 217.964844 C 199.210938 219.0625 200.648438 219.613281 202.082031 219.613281 C 203.519531 219.613281 204.953125 219.0625 206.050781 217.964844 C 208.25 215.765625 208.25 212.207031 206.050781 210.007812 Z M 181.941406 185.867188 " fill-opacity="1" fill-rule="nonzero"/><g clip-path="url(#dfa836ab3c)"><path fill="#000000" d="M 312.40625 297.792969 L 292.097656 277.484375 L 292.097656 111.960938 C 292.097656 107.347656 290.1875 102.90625 286.8125 99.699219 L 226.132812 42.164062 C 222.988281 39.183594 218.816406 37.550781 214.480469 37.550781 L 72.746094 37.550781 C 63.464844 37.550781 55.875 45.140625 55.875 54.425781 L 55.875 320.515625 C 55.875 329.84375 63.464844 337.386719 72.746094 337.386719 L 275.222656 337.386719 C 282.035156 337.386719 287.882812 333.339844 290.523438 327.539062 C 292.890625 328.714844 295.472656 329.28125 298.007812 329.28125 C 302.390625 329.28125 306.785156 327.601562 310.101562 324.269531 L 312.40625 321.964844 C 319.046875 315.292969 319.046875 304.496094 312.40625 297.792969 Z M 272.414062 101.5 L 230.226562 101.5 C 227.125 101.5 224.605469 98.980469 224.605469 95.882812 L 224.605469 56.226562 Z M 275.222656 326.148438 L 72.746094 326.148438 C 69.648438 326.148438 67.128906 323.613281 67.128906 320.53125 L 67.128906 54.425781 C 67.128906 51.324219 69.664062 48.804688 72.746094 48.804688 L 213.367188 48.804688 L 213.367188 95.882812 C 213.367188 105.179688 220.941406 112.753906 230.238281 112.753906 L 280.859375 112.753906 L 280.859375 266.308594 L 261.621094 247.066406 C 258.808594 244.257812 254.199219 244.257812 251.386719 247.066406 L 247.417969 251.039062 L 229.644531 233.261719 C 240.546875 220.496094 247.128906 203.914062 247.128906 185.867188 C 247.128906 145.539062 214.34375 112.753906 174.015625 112.753906 C 133.691406 112.753906 100.875 145.539062 100.875 185.867188 C 100.875 226.195312 133.660156 258.976562 173.984375 258.976562 C 192.15625 258.976562 208.847656 252.289062 221.671875 241.203125 L 239.449219 258.976562 L 235.171875 263.253906 C 232.363281 266.0625 232.363281 270.675781 235.171875 273.542969 L 280.84375 319.214844 L 280.84375 320.515625 C 280.859375 323.613281 278.324219 326.148438 275.222656 326.148438 Z M 173.984375 247.738281 C 139.84375 247.738281 112.113281 220.007812 112.113281 185.867188 C 112.113281 151.722656 139.84375 123.992188 173.984375 123.992188 C 208.128906 123.992188 235.859375 151.722656 235.859375 185.867188 C 235.859375 220.007812 208.128906 247.738281 173.984375 247.738281 Z M 304.480469 314.054688 L 302.175781 316.359375 C 299.871094 318.605469 296.160156 318.605469 293.914062 316.359375 L 245.9375 268.382812 L 256.503906 257.816406 L 304.480469 305.792969 C 306.726562 308.039062 306.726562 311.75 304.480469 314.054688 Z M 304.480469 314.054688 " fill-opacity="1" fill-rule="nonzero"/></g></svg>