<svg xmlns="http://www.w3.org/2000/svg" xmlns:xlink="http://www.w3.org/1999/xlink" width="500" zoomAndPan="magnify" viewBox="0 0 375 374.999991" height="500" preserveAspectRatio="xMidYMid meet" version="1.0"><defs><g/><clipPath id="9252936fd8"><path d="M 112.5 41.0625 L 262.5 41.0625 L 262.5 187.3125 L 112.5 187.3125 Z M 112.5 41.0625 " clip-rule="nonzero"/></clipPath></defs><g clip-path="url(#9252936fd8)"><path fill="#000000" d="M 261.429688 77.050781 L 200.515625 41.351562 C 200.074219 41.054688 199.78125 41.054688 199.339844 41.054688 L 187.570312 41.789062 L 175.796875 41.054688 C 175.359375 41.054688 174.917969 41.054688 174.621094 41.351562 L 113.710938 77.050781 C 113.121094 77.347656 112.535156 78.082031 112.535156 78.816406 C 112.535156 79.992188 113.414062 81.019531 114.445312 81.019531 L 123.566406 81.605469 L 114.59375 108.796875 C 114.296875 109.824219 114.738281 110.851562 115.476562 111.292969 L 124.308594 116.4375 L 124.308594 150.085938 C 124.308594 150.820312 124.75 151.554688 125.339844 151.851562 L 185.808594 186.824219 C 185.957031 186.824219 185.957031 186.96875 186.105469 186.96875 C 186.203125 186.96875 186.253906 187.015625 186.25 187.117188 C 186.742188 187.320312 187.230469 187.320312 187.722656 187.117188 C 187.820312 187.121094 187.871094 187.070312 187.867188 186.96875 C 188.023438 186.96875 188.023438 186.96875 188.164062 186.824219 L 248.632812 151.851562 C 248.96875 151.648438 249.226562 151.375 249.410156 151.035156 C 249.59375 150.691406 249.679688 150.328125 249.664062 149.9375 L 249.957031 116.140625 L 258.492188 111.144531 C 258.714844 111.035156 258.910156 110.890625 259.074219 110.703125 C 259.238281 110.519531 259.363281 110.308594 259.445312 110.078125 C 259.527344 109.84375 259.5625 109.601562 259.550781 109.355469 C 259.539062 109.109375 259.480469 108.871094 259.375 108.648438 L 250.402344 81.464844 L 260.25 80.875 C 260.53125 80.875 260.796875 80.816406 261.050781 80.699219 C 261.304688 80.582031 261.523438 80.417969 261.707031 80.207031 C 261.890625 79.996094 262.023438 79.757812 262.101562 79.488281 C 262.183594 79.222656 262.203125 78.949219 262.164062 78.671875 C 262.457031 78.085938 262.019531 77.351562 261.429688 77.050781 Z M 189.628906 47.667969 L 216.988281 63.683594 L 244.0625 79.550781 L 208.019531 100.863281 L 189.628906 90.132812 Z M 121.652344 77.351562 L 176.242188 45.316406 L 180.652344 45.609375 L 171.386719 51.046875 L 156.082031 60.011719 L 126.066406 77.644531 Z M 185.363281 47.667969 L 185.363281 90.136719 L 166.96875 100.863281 L 158.144531 95.71875 L 130.777344 79.707031 L 158.144531 63.683594 Z M 119.308594 108.503906 L 127.839844 82.933594 L 184.773438 116.730469 L 176.535156 142.160156 L 148.285156 125.546875 L 127.832031 113.496094 Z M 185.074219 181.386719 L 128.722656 148.910156 L 128.722656 118.933594 L 146.085938 129.070312 L 176.535156 147 C 177.566406 147.585938 178.890625 147.292969 179.476562 146.265625 C 179.597656 146.140625 179.644531 145.992188 179.625 145.824219 L 185.066406 129.070312 Z M 187.574219 113.058594 L 171.089844 103.359375 L 187.570312 93.808594 L 203.902344 103.210938 Z M 245.6875 148.910156 L 189.335938 181.53125 L 189.335938 129.226562 L 194.777344 145.976562 C 194.777344 146.132812 194.925781 146.273438 194.925781 146.417969 C 195.511719 147.449219 196.835938 147.742188 197.867188 147.152344 L 228.324219 129.222656 L 245.980469 118.789062 Z M 255.25 108.648438 L 247.15625 113.351562 L 226.265625 125.695312 L 198.015625 142.160156 L 189.777344 116.738281 L 219.203125 99.535156 L 246.863281 83.375 Z M 249.0625 77.644531 L 219.046875 60.011719 L 194.484375 45.609375 L 198.898438 45.316406 L 253.335938 77.207031 Z M 249.0625 77.644531 " fill-opacity="1" fill-rule="nonzero"/></g><g fill="#000000" fill-opacity="1"><g transform="translate(70.224998, 277.938512)"><g><path d="M 34.078125 1.582031 C 53.167969 1.582031 67.039062 -12.199219 70.765625 -32.21875 C 71.324219 -35.195312 71.695312 -38.082031 71.695312 -40.785156 C 71.695312 -56.890625 61.453125 -67.507812 45.4375 -67.507812 C 26.722656 -67.507812 12.757812 -53.539062 8.472656 -34.078125 C 7.820312 -31.097656 7.542969 -28.214844 7.542969 -25.417969 C 7.542969 -9.21875 18.0625 1.582031 34.078125 1.582031 Z M 34.542969 -6.144531 C 23.558594 -6.144531 16.386719 -13.6875 16.386719 -25.886719 C 16.386719 -28.121094 16.667969 -30.539062 17.132812 -33.148438 C 20.019531 -49.535156 31.378906 -59.777344 44.789062 -59.777344 C 55.679688 -59.777344 62.851562 -52.421875 62.851562 -40.410156 C 62.851562 -38.175781 62.664062 -35.753906 62.105469 -33.148438 C 58.566406 -16.480469 48.046875 -6.144531 34.542969 -6.144531 Z M 34.542969 -6.144531 "/></g></g></g><g fill="#000000" fill-opacity="1"><g transform="translate(145.547385, 277.938512)"><g><path d="M 23.929688 1.210938 C 37.988281 1.210938 48.046875 -7.542969 51.210938 -23.464844 C 51.675781 -25.699219 51.863281 -27.839844 51.863281 -29.796875 C 51.863281 -41.621094 44.320312 -49.257812 32.21875 -49.257812 C 18.621094 -49.257812 7.726562 -39.851562 4.84375 -24.953125 C 4.375 -22.625 4.191406 -20.484375 4.191406 -18.4375 C 4.191406 -6.425781 11.640625 1.210938 23.929688 1.210938 Z M 24.582031 -5.960938 C 16.851562 -5.960938 12.847656 -10.894531 12.847656 -18.714844 C 12.847656 -20.390625 13.035156 -22.160156 13.40625 -24.023438 C 15.457031 -34.917969 22.160156 -42.085938 31.285156 -42.085938 C 39.015625 -42.085938 43.203125 -37.429688 43.203125 -29.515625 C 43.203125 -27.933594 43.019531 -26.257812 42.644531 -24.394531 C 40.597656 -13.5 33.894531 -5.960938 24.582031 -5.960938 Z M 24.582031 -5.960938 "/></g></g></g><g fill="#000000" fill-opacity="1"><g transform="translate(201.503817, 277.938512)"><g><path d="M 34.730469 -49.070312 C 27.746094 -49.070312 22.066406 -45.8125 18.53125 -40.691406 L 20.019531 -48.046875 L 12.570312 -48.046875 L -1.675781 18.996094 L 6.890625 18.996094 L 12.570312 -7.726562 C 14.992188 -2.515625 20.390625 1.023438 27.375 1.023438 C 42.273438 1.023438 52.050781 -14.617188 52.050781 -30.355469 C 52.050781 -41.902344 45.160156 -49.070312 34.730469 -49.070312 Z M 26.628906 -6.332031 C 19.367188 -6.332031 15.085938 -10.894531 15.085938 -18.714844 C 15.085938 -30.074219 21.324219 -41.714844 32.777344 -41.714844 C 39.199219 -41.714844 43.390625 -37.617188 43.390625 -30.261719 C 43.390625 -18.996094 37.246094 -6.332031 26.628906 -6.332031 Z M 26.628906 -6.332031 "/></g></g></g><g fill="#000000" fill-opacity="1"><g transform="translate(257.739566, 277.938512)"><g><path d="M 19.925781 1.210938 C 32.683594 1.210938 41.621094 -4.375 41.621094 -15.828125 C 41.621094 -21.507812 38.175781 -25.792969 29.515625 -27.65625 L 21.324219 -29.421875 C 16.574219 -30.449219 15.085938 -32.402344 15.085938 -35.289062 C 15.085938 -39.851562 19.460938 -42.367188 25.976562 -42.367188 C 32.402344 -42.367188 36.035156 -39.386719 36.035156 -34.078125 L 44.136719 -34.078125 C 44.136719 -43.949219 37.710938 -49.164062 26.910156 -49.164062 C 15.175781 -49.164062 6.984375 -44.507812 6.984375 -33.894531 C 6.984375 -28.398438 10.523438 -23.929688 18.902344 -22.066406 L 27.1875 -20.207031 C 31.378906 -19.273438 33.335938 -17.503906 33.335938 -14.617188 C 33.335938 -9.3125 28.957031 -5.679688 20.671875 -5.679688 C 12.664062 -5.679688 10.054688 -8.84375 10.054688 -15.175781 L 1.863281 -15.175781 C 1.863281 -4.75 7.449219 1.210938 19.925781 1.210938 Z M 19.925781 1.210938 "/></g></g></g></svg>